<svg width="666" height="594" viewBox="0 0 666 594" fill="none" xmlns="http://www.w3.org/2000/svg">
<path d="M608.161 267.681C608.09 264.336 607.172 261.062 605.492 258.168C600.77 249.942 590.383 244.707 574.641 242.607C565.532 241.391 556.967 239.903 549.184 238.183C525.328 232.871 500.882 230.692 476.463 231.699C455.918 232.472 435.428 234.33 415.08 237.267C410.769 237.922 405.761 238.72 400.21 239.609C358.987 246.191 275.118 259.578 223.025 249.258C215.949 235.898 214.729 223.96 219.406 213.742C229.56 191.552 263.938 181.156 276.385 178.056C291.119 200.567 309.848 214.42 332.098 219.256C373.483 228.25 411.602 202.628 413.205 201.535C414.429 200.698 415.353 199.491 415.841 198.09C416.33 196.69 416.357 195.17 415.919 193.753C415.481 192.336 414.601 191.097 413.408 190.216C412.215 189.335 410.771 188.86 409.288 188.859C405.528 188.593 401.9 187.357 398.759 185.272C391.83 181.062 386.163 175.063 382.354 167.906C368.172 141.776 347.7 132.035 335.941 128.467C359.874 71.1429 328.756 33.6747 327.354 32.0385L327.163 31.8332C319.657 23.7487 323.878 9.09278 323.917 8.9696C324.31 7.67945 324.319 6.30273 323.943 5.00756C323.566 3.71238 322.821 2.55478 321.798 1.67611C320.775 0.797439 319.518 0.235712 318.181 0.0595206C316.843 -0.116671 315.484 0.100297 314.268 0.68393C281.216 16.5059 261.534 45.9821 257.342 85.9221C255.851 101.084 256.386 116.376 258.933 131.397C242.99 130.327 226.983 130.67 211.1 132.423C204.822 133.039 85.6402 145.817 32.7441 240.012C9.46378 281.469 7.28767 331.242 26.9179 373.153C42.9308 407.347 69.4035 433.66 105.636 451.504C95.0461 462.716 86.3518 475.576 79.894 489.582C57.478 538.146 10.094 531.02 8.10269 530.694C6.6343 530.446 5.12501 530.676 3.79751 531.351C2.47002 532.026 1.39462 533.11 0.730006 534.442C0.0653871 535.775 -0.153256 537.286 0.106337 538.752C0.36593 540.219 1.09001 541.563 2.17174 542.587C24.6966 563.896 53.4316 576.45 81.3763 574.475C134.4 570.728 177.801 524.923 193.988 505.211C200.654 496.984 208.057 489.384 216.105 482.503C216.407 482.533 216.711 482.543 217.014 482.534C250.721 480.384 293.95 482.719 294.279 482.739C295.42 482.819 296.537 482.875 297.674 482.945C284.761 492.099 274.089 504.06 266.459 517.929C255.306 537.939 226.729 579.722 182.514 580.02C190.475 574.007 196.698 565.99 200.549 556.787C204.4 547.583 205.741 537.523 204.436 527.633C204.35 526.715 204.082 525.823 203.648 525.01C203.214 524.197 202.622 523.478 201.907 522.896C201.193 522.313 200.369 521.879 199.485 521.619C198.601 521.358 197.673 521.276 196.757 521.377C195.841 521.479 194.954 521.761 194.148 522.209C193.342 522.657 192.633 523.26 192.063 523.985C191.493 524.709 191.073 525.54 190.827 526.429C190.581 527.317 190.515 528.246 190.632 529.16C191.943 539.523 189.516 550.015 183.787 558.749C177.585 567.614 168.505 574.057 158.091 576.986C156.571 577.308 155.203 578.13 154.206 579.322C153.208 580.513 152.639 582.004 152.59 583.557C152.54 585.109 153.012 586.634 153.93 587.887C154.849 589.14 156.161 590.048 157.657 590.467C165.732 592.772 174.084 593.96 182.482 593.996C233.774 593.996 266.065 547.161 278.592 524.683C285.882 511.315 296.452 500.021 309.308 491.862C314.175 488.862 319.281 486.268 324.574 484.104C324.656 484.07 324.724 484.018 324.804 483.981C326.976 484.008 329.15 484.039 331.297 484.039C472.117 484.039 557.246 425.823 588.816 399.16C596.327 392.811 605.84 389.32 615.675 389.306H632.868C640.077 389.402 647.149 387.336 653.172 383.373C668.483 373.034 666.358 356.358 662.584 347.535C662.847 336.919 661.16 287.049 608.161 267.681ZM183.256 496.399C171.525 510.682 129.452 557.534 80.5038 560.615C61.5839 561.806 43.3804 556.339 26.1768 544.344C46.0349 541.993 75.6301 531.965 92.5627 495.279C92.7496 494.852 111.665 452.409 141.277 445.006C143.051 444.548 144.571 443.407 145.508 441.832C146.444 440.257 146.721 438.376 146.276 436.599C145.832 434.821 144.704 433.291 143.137 432.342C141.57 431.393 139.691 431.101 137.91 431.531C130.397 433.512 123.332 436.912 117.097 441.549C81.017 425.109 54.8933 400.143 39.4963 367.263C21.7589 329.401 23.7625 284.374 44.8544 246.815C94.4227 158.539 211.348 146.352 212.522 146.242C212.553 146.242 212.58 146.227 212.611 146.223C212.641 146.219 212.67 146.223 212.699 146.223C212.994 146.188 242.298 142.721 266.662 146.205C267.797 146.365 268.955 146.243 270.031 145.848C271.107 145.453 272.069 144.798 272.831 143.942C273.593 143.085 274.131 142.053 274.398 140.939C274.664 139.824 274.651 138.66 274.359 137.551C270.564 120.975 269.495 103.891 271.191 86.9711C274.455 56.7395 287.106 34.1612 308.852 19.6695C308.841 27.5521 311.677 35.1736 316.838 41.131C318.832 43.5535 345.727 77.8109 319.836 130.315C319.337 131.326 319.091 132.443 319.121 133.57C319.15 134.697 319.454 135.799 320.005 136.783C320.556 137.766 321.339 138.6 322.285 139.214C323.23 139.827 324.311 140.2 325.434 140.302C325.709 140.327 353.11 143.164 370.155 174.541C375.157 183.894 382.587 191.727 391.664 197.214C391.738 197.255 391.812 197.3 391.886 197.345C378.515 203.453 356.908 210.484 334.962 205.672C315.253 201.361 298.641 188.222 285.593 166.609C284.86 165.398 283.776 164.439 282.484 163.861C281.192 163.284 279.755 163.114 278.364 163.375C276.081 163.802 222.226 174.281 206.795 207.937C201.662 219.152 201.35 231.404 205.834 244.499C198.798 242.069 192.366 238.155 186.975 233.021C182.915 229.042 179.832 224.175 177.971 218.803C177.691 217.931 177.242 217.124 176.649 216.427C176.055 215.73 175.33 215.157 174.515 214.741C173.699 214.325 172.81 214.075 171.897 214.004C170.984 213.933 170.067 214.044 169.197 214.329C168.327 214.614 167.523 215.069 166.829 215.666C166.136 216.264 165.567 216.992 165.156 217.81C164.746 218.628 164.501 219.519 164.435 220.432C164.37 221.346 164.486 222.262 164.777 223.13C167.298 230.541 171.51 237.262 177.078 242.763C216.675 282.986 337.495 263.69 402.405 253.325C407.913 252.444 412.875 251.652 417.164 251.003C437.02 248.141 457.013 246.331 477.06 245.579C500.271 244.62 523.509 246.691 546.185 251.738C554.349 253.543 563.304 255.103 572.801 256.37C587.305 258.303 591.255 261.857 594.254 267.597C590.992 268.646 587.624 269.334 584.211 269.65C578.682 270.189 573.108 270.06 567.609 269.264C531.33 264.71 494.503 270.559 461.421 286.131C438.395 297.352 418.159 313.561 402.181 333.581C387.1 352.106 345.109 395.255 281.09 395.766C279.269 395.804 277.535 396.556 276.263 397.86C274.991 399.164 274.282 400.916 274.289 402.738C274.297 404.559 275.019 406.306 276.302 407.599C277.585 408.893 279.324 409.631 281.146 409.654H281.203C351.12 409.098 396.632 362.4 412.951 342.349C427.638 323.922 446.245 308.998 467.419 298.66C498.053 284.23 532.158 278.809 565.755 283.029C572.364 283.972 579.061 284.116 585.704 283.458C590.951 282.999 596.107 281.798 601.017 279.89C634.927 291.245 644.921 316.432 647.738 332.897C635.674 324.737 621.533 320.191 606.974 319.793H606.892C529.78 313.072 465.484 371.921 460.518 376.592C403.123 422.793 309.626 434.485 308.694 434.6C308.559 434.616 308.419 434.639 308.284 434.661L259.865 443.434C257.262 443.828 236.269 447.626 208.191 470.99C199.088 478.646 190.738 487.154 183.256 496.399ZM579.563 388.799C560.946 404.199 540.606 417.39 518.95 428.106C524.63 418.978 529.318 409.271 532.937 399.148C533.571 397.418 533.491 395.508 532.716 393.837C531.942 392.167 530.535 390.872 528.806 390.239C527.949 389.925 527.04 389.783 526.129 389.821C525.217 389.859 524.323 390.076 523.495 390.46C521.825 391.234 520.53 392.641 519.897 394.37C505.937 432.487 487.434 442.029 486.97 442.259C486.908 442.288 486.859 442.331 486.799 442.36C474.057 447.296 461.065 451.56 447.875 455.133C456.274 444.623 462.62 432.626 466.584 419.769C478.719 382.576 491.835 369.971 493.773 368.261C508.821 357.939 525.067 349.483 542.155 343.08C537.935 349.185 534.304 355.677 531.311 362.468C530.911 363.295 530.684 364.196 530.644 365.114C530.604 366.033 530.752 366.95 531.078 367.809C531.405 368.668 531.904 369.452 532.544 370.112C533.184 370.772 533.952 371.294 534.801 371.646C536.502 372.161 538.325 372.098 539.986 371.466C541.647 370.835 543.052 369.671 543.982 368.156C555.638 342.213 568.391 336.211 570.438 335.385C582.162 333.236 594.121 332.659 605.997 333.669C606.25 333.692 606.525 333.698 606.781 333.696H606.968C602.622 340.708 599.36 348.338 597.295 356.325C593.868 368.332 587.811 379.424 579.563 388.799ZM378.271 467.837C382.57 462.847 386.092 457.237 388.718 451.196C388.751 451.118 388.786 451.036 388.817 450.958C388.886 450.783 395.577 434.095 405.035 423.588C425.17 415.773 444.266 405.507 461.891 393.022C458.681 400.352 455.842 407.839 453.384 415.454C441.054 453.255 418.812 461.555 416.49 462.329C404.376 464.63 391.654 466.513 378.271 467.843V467.837ZM236.515 467.851C251.721 458.841 261.616 457.223 261.932 457.176C261.98 457.176 262.023 457.149 262.07 457.143C262.117 457.137 262.185 457.143 262.244 457.127L306.547 449.1C302.095 456.812 296.007 463.456 288.713 468.564C278.524 468.133 257.74 467.432 236.515 467.857V467.851ZM308.573 469.621C314.862 462.887 319.821 455.025 323.19 446.449C343.359 442.933 363.254 437.993 382.725 431.668C380.201 436.22 377.939 440.912 375.951 445.723C368.687 462.175 357.006 468.202 353.779 469.604C339.369 470.268 324.309 470.327 308.569 469.627L308.573 469.621ZM645.401 371.868C641.674 374.274 637.314 375.512 632.878 375.422H615.675C611.841 375.434 608.02 375.847 604.273 376.653C606.941 371.318 609.088 365.737 610.686 359.99C614.587 345.824 620.06 338.783 622.445 336.233C632.88 339.218 642.316 344.963 649.76 352.862C650.987 355.732 654.453 365.758 645.397 371.874L645.401 371.868Z" fill="#0D2936" fill-opacity="0.1"/>
</svg>
